<svg id="Main" xmlns="http://www.w3.org/2000/svg" viewBox="0 0 179 78"><defs><style>.cls-1{fill:red;}.cls-2{font-size:31.6px;font-family:Arial-BoldItalicMT, Arial;font-weight:700;}.cls-2,.cls-3{font-style:italic;}.cls-3{font-size:10.15px;font-family:Arial-ItalicMT, Arial;}</style></defs><title>Endurance-logo</title><polygon class="cls-1" points="107.62 19.14 99.95 31.07 86.5 31.07 90.93 22.97 93.39 19.14 107.62 19.14"/><polygon points="117 42 80.51 42 85.41 33.05 111.41 33.05 116.37 40.7 117 42"/><polygon class="cls-1" points="82.6 33.05 77.9 42 68 42 72.49 33.05 82.6 33.05"/><polygon points="95.47 8.5 83.45 31.41 73.75 31.16 89.96 0 95.47 8.5"/><polygon class="cls-1" points="22 42 22 47 3.09 47 4 42 22 42"/><polygon class="cls-1" points="7 55 7 58 19 58 19 64 0 64 2.55 50 20 50 19 55 7 55"/><text class="cls-2" transform="translate(20.5 64.1) scale(1.11 1)">ndurance</text><text x="-1"></text><text class="cls-3" transform="translate(63 74.71) scale(1.31 1)">Software Solutions</text></svg>